<svg width="32" height="32" viewBox="0 0 32 32" xmlns="http://www.w3.org/2000/svg">
  <defs>
    <linearGradient id="bgGradient" x1="0%" y1="0%" x2="100%" y2="100%">
      <stop offset="0%" style="stop-color:#4F46E5;stop-opacity:1" />
      <stop offset="100%" style="stop-color:#7C3AED;stop-opacity:1" />
    </linearGradient>
    <linearGradient id="nodeGradient" x1="0%" y1="0%" x2="100%" y2="100%">
      <stop offset="0%" style="stop-color:#60A5FA;stop-opacity:1" />
      <stop offset="100%" style="stop-color:#34D399;stop-opacity:1" />
    </linearGradient>
  </defs>
  
  <!-- Background -->
  <rect width="32" height="32" rx="6" fill="url(#bgGradient)"/>
  
  <!-- Document base -->
  <rect x="8" y="6" width="16" height="20" rx="2" fill="white" opacity="0.95"/>
  
  <!-- Document fold -->
  <path d="M21 6 L21 9 L24 9 L21 6 Z" fill="white" opacity="0.7"/>
  
  <!-- Neural network nodes -->
  <circle cx="12" cy="12" r="1.5" fill="url(#nodeGradient)"/>
  <circle cx="20" cy="12" r="1.5" fill="url(#nodeGradient)"/>
  <circle cx="16" cy="9" r="1.5" fill="url(#nodeGradient)"/>
  <circle cx="16" cy="15" r="1.5" fill="url(#nodeGradient)"/>
  
  <!-- Neural network connections -->
  <line x1="12" y1="12" x2="16" y2="9" stroke="url(#nodeGradient)" stroke-width="0.8" opacity="0.8"/>
  <line x1="12" y1="12" x2="16" y2="15" stroke="url(#nodeGradient)" stroke-width="0.8" opacity="0.8"/>
  <line x1="16" y1="9" x2="20" y2="12" stroke="url(#nodeGradient)" stroke-width="0.8" opacity="0.8"/>
  <line x1="16" y1="15" x2="20" y2="12" stroke="url(#nodeGradient)" stroke-width="0.8" opacity="0.8"/>
  
  <!-- Command line indicator (small cursor) -->
  <rect x="10" y="20" width="1" height="3" fill="#4F46E5" opacity="0.8"/>
  <rect x="12" y="21" width="8" height="1" fill="#6B7280" opacity="0.6"/>
</svg>